<?xml version="1.0" encoding="UTF-8"?><svg xmlns="http://www.w3.org/2000/svg" xmlns:xlink="http://www.w3.org/1999/xlink" viewBox="0 0 0 0"><defs><symbol id="timeless" fill="none" viewBox="0 0 24 24"><path fill="currentColor" fill-rule="evenodd" d="m5.6 3.96-.07.06-.21.23q-.26.31-.61.8a38 38 0 0 0-2.87 4.78h14.94l-2.62-6.3a75 75 0 0 0-8.03.33l-.54.1Zm10.16-.38 2.6 6.25h3.82l-.07-.15a42 42 0 0 0-2.76-4.5 10 10 0 0 0-1.03-1.28 15 15 0 0 0-2.56-.32m6.27 7.71q-.43.58-1.11 1.35a57 57 0 0 1-3.43 3.49 54 54 0 0 1-3.44 3l4.25-7.84zm-5.39 0H1.96q.4.55 1.05 1.28a57 57 0 0 0 7.04 6.66 14 14 0 0 0 1.67 1.13zm2.04-8.8c.17.05.39.13.56.28.35.3.82.9 1.3 1.56a43 43 0 0 1 2.88 4.7 9 9 0 0 1 .52 1.31c.02.11.05.31 0 .53-.12.38-.39.82-.7 1.24q-.5.67-1.23 1.5a59 59 0 0 1-3.52 3.58 54 54 0 0 1-3.72 3.22q-.83.65-1.5 1.05a4 4 0 0 1-.61.32c-.19.08-.42.16-.66.16q-.37-.02-.67-.16a5 5 0 0 1-.65-.33q-.68-.4-1.53-1.07a59 59 0 0 1-7.24-6.85q-.72-.81-1.2-1.48c-.29-.4-.56-.83-.65-1.2-.06-.22-.01-.43.01-.52l.12-.39q.16-.4.42-.93a40 40 0 0 1 2.9-4.8 12 12 0 0 1 .7-.9c.18-.22.41-.47.64-.6a2 2 0 0 1 .5-.2l.57-.1q.66-.09 1.6-.16a75 75 0 0 1 8.88-.1 16 16 0 0 1 2.28.33Z" clip-rule="evenodd"/></symbol></defs></svg>