<svg xmlns="http://www.w3.org/2000/svg" xmlns:xlink="http://www.w3.org/1999/xlink" viewBox="0 0 0 0"><defs><symbol id="affordable" viewBox="0 0 36 33"><linearGradient id="affordable-a" x1="94.73%" x2="12.79%" y1="83.82%" y2="-10.08%"><stop offset="0" stop-color="#2d82e4"/><stop offset="1" stop-color="#69afff"/></linearGradient><g fill="transparent" stroke="url(#affordable-a)" stroke-linecap="round" stroke-linejoin="round" stroke-width="2" transform="translate(1 1)"><path d="M0 3.1v21.7A6.2 6.2 0 0 0 6.18 31h24.73A3.1 3.1 0 0 0 34 27.9V9.3a3.1 3.1 0 0 0-3.1-3.1H3.1a3.1 3.1 0 0 1 0-6.2h27.8"/><circle cx="25" cy="19" r="3"/></g></symbol><symbol id="execute" viewBox="0 0 64 50"><linearGradient id="execute-a" x1="100%" x2="0%" y1="86.49%" y2="35.82%"><stop offset="0" stop-color="#9fdaf3"/><stop offset="1" stop-color="#c2e8f8"/></linearGradient><linearGradient id="execute-b" x1="50%" x2="50%" y1="89.79%" y2=".83%"><stop offset="0" stop-color="#b0a2fa"/><stop offset="1" stop-color="#cbc0fc"/></linearGradient><linearGradient id="execute-c" x1="100%" x2="0%" y1="78.85%" y2="26.36%"><stop offset="0" stop-color="#82d1ef"/><stop offset="1" stop-color="#7fd0ef"/></linearGradient><linearGradient id="execute-d" x1="50%" x2="50%" y1="99.02%" y2="0%"><stop offset="0" stop-color="#7056f5"/><stop offset="1" stop-color="#afa1fa"/></linearGradient><g fill="transparent" stroke-linecap="round" stroke-linejoin="round" stroke-width="3"><path stroke="url(#execute-a)" d="m0 0 24 15.55V30L0 14.45z" transform="matrix(1 0 0 -1 2 32)"/><path stroke="url(#execute-b)" d="m36 0 24 15.55V30L36 14.45z" transform="rotate(180 49 16)"/><g fill="#fff"><path stroke="url(#execute-c)" d="m0 16 24 15.55V46L0 30.45z" transform="translate(2 2)"/><path stroke="url(#execute-d)" d="m36 16 24 15.55V46L36 30.45z" transform="matrix(-1 0 0 1 98 2)"/></g></g></symbol><symbol id="on-time" viewBox="0 0 35 34"><linearGradient id="on_time-a" x1="-345.1" x2="-345.1" y1="337.71" y2="338.36" gradientTransform="matrix(-5 0 0 -5 -1705 1701)" gradientUnits="userSpaceOnUse"><stop offset="0" stop-color="#2d82e4"/><stop offset="1" stop-color="#69afff"/></linearGradient><linearGradient xlink:href="#on_time-a" id="on_time-b" x1="0" x2="0" y1="394.41" y2="395.06" gradientTransform="matrix(1 0 0 -20 6 7914)"/><linearGradient xlink:href="#on_time-a" id="on_time-c" x1="0" x2="0" y1="394.41" y2="395.06" gradientTransform="matrix(1 0 0 -20 30 7914)"/><linearGradient xlink:href="#on_time-a" id="on_time-d" x1="-277.6" x2="-276.94" y1="36" y2="36" gradientTransform="matrix(33 0 0 -1 9217 69)"/><linearGradient xlink:href="#on_time-a" id="on_time-e" x1="-275.5" x2="-275.5" y1="397.56" y2="398.21" gradientTransform="matrix(24 0 0 -24 6630 9559)"/><g fill="none" stroke-linejoin="round" stroke-width="2"><g stroke-linecap="round"><path stroke="url(#on_time-a)" d="M23 14h-5V9"/><path stroke="url(#on_time-b)" d="M6 12v20"/><path stroke="url(#on_time-c)" d="M30 12v20"/><path stroke="url(#on_time-d)" d="M1 33h33"/></g><circle cx="18" cy="13" r="12" stroke="url(#on_time-e)"/></g></symbol><symbol id="premium" viewBox="0 0 36 36"><linearGradient id="premium-a" x1="94.73%" x2="12.79%" y1="83.82%" y2="-10.08%"><stop offset="0" stop-color="#2d82e4"/><stop offset="1" stop-color="#69afff"/></linearGradient><g stroke="url(#premium-a)" stroke-linecap="round" stroke-linejoin="round" stroke-width="2" transform="translate(1 1)"><rect width="24" height="24" y="10" fill="transparent" rx="2"/><circle cx="16.64" cy="10.5" r="10.5" fill="#fff"/><path fill="#fff" d="M34 8.55V26.2a1 1 0 0 1-1 1H14.93a1 1 0 0 1-.7-1.72L32.3 7.83a1 1 0 0 1 1.7.72"/></g></symbol><symbol id="process-design" viewBox="0 0 61 60"><linearGradient id="design-a" x1="100%" x2="0%" y1="86.49%" y2="35.82%"><stop offset="0" stop-color="#9fdaf3"/><stop offset="1" stop-color="#c2e8f8"/></linearGradient><linearGradient id="design-b" x1="50%" x2="50%" y1="100%" y2="0%"><stop offset="0" stop-color="#5b6aff"/><stop offset="1" stop-color="#919aff"/></linearGradient><linearGradient id="design-c" x1="50%" x2="50%" y1="1.17%" y2="99.02%"><stop offset="0" stop-color="#ffc7d1"/><stop offset="1" stop-color="#ffa3b4"/></linearGradient><g fill="transparent" stroke-linecap="round" stroke-linejoin="round" stroke-width="3" transform="translate(2 1)"><rect width="39.77" height="39.77" x=".28" y="17.67" stroke="url(#design-a)" rx="2"/><g fill="#fff"><circle cx="27.86" cy="18.04" r="17.4" stroke="url(#design-b)"/><path stroke="url(#design-c)" d="M56.63 14.25V45.7a1 1 0 0 1-1 1H23.4a1 1 0 0 1-.7-1.71l32.22-31.47a1 1 0 0 1 1.7.72z"/></g></g></symbol><symbol id="research" viewBox="0 0 64 60"><linearGradient id="research-a" x1="0%" x2="90.95%" y1="90.91%" y2="0%"><stop offset=".02" stop-color="#7ecdef"/><stop offset=".96" stop-color="#c2e8f8"/></linearGradient><linearGradient id="research-b" x1="8.25%" x2="83.27%" y1="100%" y2="0%"><stop offset="0" stop-color="#ffc89d"/><stop offset="1" stop-color="#ffc6bd"/></linearGradient><linearGradient id="research-c" x1="50%" x2="50%" y1="100%" y2="0%"><stop offset="0" stop-color="#9ea5ff"/><stop offset="1" stop-color="#bcc2ff"/></linearGradient><linearGradient id="research-d" x1="50%" x2="50%" y1="100%" y2="0%"><stop offset="0" stop-color="#5b6aff"/><stop offset="1" stop-color="#919aff"/></linearGradient><g fill="transparent" stroke-width="3"><path stroke="url(#research-a)" d="M46.32-1.17q1.08 0 1.9.5c.88.54 1.42 1.47 1.69 2.7 1.26 5.63-2.98 17.6-11.35 30.3-8.96 13.59-19.28 22.84-24.88 22.84q-1.08 0-1.9-.5c-.88-.54-1.42-1.47-1.69-2.7-1.26-5.63 2.98-17.6 11.35-30.3C30.4 8.08 40.72-1.17 46.32-1.17z" transform="translate(3 3)"/><path stroke="url(#research-b)" d="M29 17.93c16.72 0 30.13 4.6 30.13 10.07S45.73 38.07 29 38.07-1.13 33.47-1.13 28 12.27 17.93 29 17.93z" transform="translate(3 3)"/><path stroke="url(#research-c)" d="M13.68-1.17c5.6 0 15.92 9.25 24.88 22.84 8.37 12.7 12.6 24.67 11.35 30.3-.27 1.23-.81 2.16-1.69 2.7q-.82.5-1.9.5c-5.6 0-15.92-9.25-24.88-22.84-8.37-12.7-12.6-24.67-11.35-30.3.27-1.23.81-2.16 1.69-2.7q.82-.5 1.9-.5z" transform="translate(3 3)"/></g><path fill="url(#research-d)" d="M29.83 24.83a3 3 0 1 0 0 6 3 3 0 0 0 0-6" transform="translate(3 3)"/></symbol><symbol id="strategy" viewBox="0 0 56 56"><linearGradient id="strategy-a" x1="50%" x2="50%" y1="1.17%" y2="99.02%"><stop offset="0" stop-color="#ffdcd5"/><stop offset="1" stop-color="#ffc4b9"/></linearGradient><linearGradient id="strategy-b" x1="50%" x2="50%" y1="95.21%" y2="3.13%"><stop offset="0" stop-color="#ffac9d"/><stop offset="1" stop-color="#ffc1b6"/></linearGradient><linearGradient id="strategy-c" x1="50%" x2="50%" y1="100%" y2="0%"><stop offset="0" stop-color="#5b6aff"/><stop offset="1" stop-color="#919aff"/></linearGradient><g fill="transparent" stroke-linecap="round" stroke-linejoin="round" stroke-width="3"><path stroke="url(#strategy-a)" d="m0 0 15 15" transform="translate(2 2)"/><path stroke="url(#strategy-b)" d="M0 15 15 0" transform="translate(2 2)"/><path stroke="url(#strategy-a)" d="m37 37 15 15" transform="translate(2 2)"/><path stroke="url(#strategy-b)" d="m37 52 15-15" transform="translate(2 2)"/><g stroke="url(#strategy-c)" transform="translate(2 2)"><path d="M18 33 48 2"/><circle cx="10.5" cy="41.5" r="10.5"/><path d="M35 0h15v15"/></g></g></symbol><symbol id="what-we-do-design" viewBox="0 0 37 37"><defs><linearGradient id="what-we-do-design-a" x1="0%" x2="88.55%" y1="100%" y2="0%"><stop offset="0%" stop-color="#ffac9d"/><stop offset="100%" stop-color="#ffc6bd"/></linearGradient><linearGradient id="what-we-do-design-b" x1="50%" x2="50%" y1="100%" y2="0%"><stop offset="0%" stop-color="#5b6aff"/><stop offset="100%" stop-color="#919aff"/></linearGradient><linearGradient id="what-we-do-design-c" x1="100%" x2="0%" y1="100%" y2="0%"><stop offset="0%" stop-color="#96d7f3"/><stop offset="100%" stop-color="#c2e8f8"/></linearGradient></defs><g fill="transparent" stroke-linecap="round" stroke-linejoin="round" stroke-width="2" transform="translate(.27 .4)"><rect width="24" height="24" x=".77" y="10.66" stroke="url(#what-we-do-design-a)" rx="2"/><g fill="#fff"><circle cx="17.42" cy="11.49" r="10.5" stroke="url(#what-we-do-design-b)"/><path stroke="url(#what-we-do-design-c)" d="M34.77 9.54v17.65a1 1 0 0 1-1 1H15.71a1 1 0 0 1-.7-1.72L33.08 8.82a1 1 0 0 1 1.7.72"/></g></g></symbol></defs></svg>