<svg height="60" viewBox="0 0 61 60" width="61" xmlns="http://www.w3.org/2000/svg" xmlns:xlink="http://www.w3.org/1999/xlink"><linearGradient id="a" x1="100%" x2="0%" y1="86.489827%" y2="35.824112%"><stop offset="0" stop-color="#9fdaf3"/><stop offset="1" stop-color="#c2e8f8"/></linearGradient><linearGradient id="b" x1="50%" x2="50%" y1="100%" y2="0%"><stop offset="0" stop-color="#5b6aff"/><stop offset="1" stop-color="#919aff"/></linearGradient><linearGradient id="c" x1="50%" x2="50%" y1="1.171624%" y2="99.024567%"><stop offset="0" stop-color="#ffc7d1"/><stop offset="1" stop-color="#ffa3b4"/></linearGradient><g fill="none" fill-rule="evenodd"><path d="m-1090-3913h2000v5317h-2000z" fill="#fff"/><g stroke-linecap="round" stroke-linejoin="round" stroke-width="3" transform="translate(2 1)"><rect height="39.771429" rx="2" stroke="url(#a)" width="39.771429" x=".282506" y="17.671066"/><g fill="#fff"><circle cx="27.860017" cy="18.037319" r="17.4" stroke="url(#b)"/><path d="m56.6253627 14.2458357v31.4646636c0 .5522847-.4477152 1-1 1h-32.2107213c-.5522847 0-1-.4477153-1-1 0-.2692787.1085995-.5271776.3012261-.7153426l32.2107213-31.4646635c.3950728-.3859222 1.0281943-.3785042 1.4141165.0165686.1824911.1868181.2846574.4376149.2846574.6987739z" stroke="url(#c)"/></g></g></g></svg>