<svg height="60" viewBox="0 0 64 60" width="64" xmlns="http://www.w3.org/2000/svg" xmlns:xlink="http://www.w3.org/1999/xlink"><linearGradient id="a" x1="0%" x2="90.952774%" y1="90.909424%" y2="0%"><stop offset=".0171378251" stop-color="#7ecdef"/><stop offset=".962269689" stop-color="#c2e8f8"/></linearGradient><linearGradient id="b" x1="8.246837%" x2="83.273944%" y1="100%" y2="0%"><stop offset="0" stop-color="#ffc89d"/><stop offset="1" stop-color="#ffc6bd"/></linearGradient><linearGradient id="c" x1="50%" x2="50%" y1="100%" y2="0%"><stop offset="0" stop-color="#9ea5ff"/><stop offset="1" stop-color="#bcc2ff"/></linearGradient><linearGradient id="d" x1="50%" x2="50%" y1="100%" y2="0%"><stop offset="0" stop-color="#5b6aff"/><stop offset="1" stop-color="#919aff"/></linearGradient><g fill="none" fill-rule="evenodd"><path d="m-608-3912h2000v5317h-2000z" fill="#fff"/><g fill-rule="nonzero" transform="translate(3 3)"><g stroke-width="3"><path d="m46.323171-1.16666667c.7168821 0 1.3513727.15405789 1.9054862.49579339.8691498.53957931 1.4064432 1.47301949 1.6795398 2.69660898 1.2601238 5.63326179-2.9745806 17.6099144-11.3450235 30.3020202-8.9625329 13.5903923-19.2847186 22.8399577-24.8863445 22.8389108-.7168821 0-1.3513727-.1540579-1.9054862-.4957934-.8691498-.5395793-1.4064432-1.4730195-1.6795398-2.696609-1.26012378-5.6332618 2.9745806-17.6099144 11.3450662-30.3020848 8.9635014-13.59033486 19.2837223-22.83884617 24.8863018-22.83884617z" stroke="url(#a)"/><path d="m29 17.9285714c16.7234895 0 30.1315789 4.601233 30.1315789 10.0714286s-13.4080894 10.0714286-30.1315789 10.0714286-30.13157895-4.601233-30.13157895-10.0714286 13.40808945-10.0714286 30.13157895-10.0714286z" stroke="url(#b)"/><path d="m13.6768295-1.16666667c5.6025793 0 15.9228 9.24851131 24.8863298 22.83888957 8.3704566 12.692127 12.6051609 24.6687796 11.3451917 30.3013498-.273246 1.2242347-.8105441 2.1576712-1.683478 2.6996417-.5503297.3393944-1.1848203.4934523-1.9017025.4934523-5.6025793 0-15.9228-9.2485113-24.8863298-22.8388896-8.3704566-12.692127-12.60516091-24.66877961-11.3451917-30.3013498.273246-1.22423474.8105441-2.15767118 1.683478-2.69964173.5503297-.33939434 1.1848203-.49345224 1.9017025-.49345224z" stroke="url(#c)"/></g><path d="m29.8333333 24.8333333c-1.65528 0-3 1.34619-3 3s1.34472 3 3 3 3-1.34619 3-3-1.34472-3-3-3z" fill="url(#d)"/></g></g></svg>