<svg height="50" viewBox="0 0 64 50" width="64" xmlns="http://www.w3.org/2000/svg" xmlns:xlink="http://www.w3.org/1999/xlink"><linearGradient id="a" x1="100%" x2="0%" y1="86.489827%" y2="35.824112%"><stop offset="0" stop-color="#9fdaf3"/><stop offset="1" stop-color="#c2e8f8"/></linearGradient><linearGradient id="b" x1="50%" x2="50%" y1="89.785366%" y2=".83175%"><stop offset="0" stop-color="#b0a2fa"/><stop offset="1" stop-color="#cbc0fc"/></linearGradient><linearGradient id="c" x1="100%" x2="0%" y1="78.847614%" y2="26.363601%"><stop offset="0" stop-color="#82d1ef"/><stop offset="1" stop-color="#7fd0ef"/></linearGradient><linearGradient id="d" x1="50%" x2="50%" y1="99.024567%" y2="0%"><stop offset="0" stop-color="#7056f5"/><stop offset="1" stop-color="#afa1fa"/></linearGradient><g fill="none" fill-rule="evenodd"><path d="m-1328-3917h2000v5317h-2000z" fill="#fff"/><g stroke-linecap="round" stroke-linejoin="round" stroke-width="3" transform="translate(2 2)"><path d="m0 0 24 15.5456283v14.4543717l-24-15.5456283z" stroke="url(#a)" transform="matrix(1 0 0 -1 0 30)"/><path d="m36 0 24 15.5456283v14.4543717l-24-15.5456283z" stroke="url(#b)" transform="matrix(-1 0 0 -1 96 30)"/><g fill="#fff"><path d="m0 16 24 15.5456283v14.4543717l-24-15.5456283z" stroke="url(#c)"/><path d="m36 16 24 15.5456283v14.4543717l-24-15.5456283z" stroke="url(#d)" transform="matrix(-1 0 0 1 96 0)"/></g></g></g></svg>