<svg xmlns="http://www.w3.org/2000/svg" fill="none" viewBox="0 0 24 24">
	<style>
		@media (color-gamut: p3) {
			.foreground {
				fill: oklch(0% 0 0);
			}
		}
		@media (prefers-color-scheme: dark) {
			.foreground {
				fill: #fff;
			}
			.foreground {
				fill: oklch(100% 0 0);
			}
		}
	</style>
	<path
		fill="#000"
		class="foreground"
		fill-rule="evenodd"
		d="m5.6 3.96-.07.06-.21.23c-.17.2-.38.48-.61.8a38.14 38.14 0 0 0-2.87 4.78h14.94l-2.62-6.3a74.51 74.51 0 0 0-8.03.33 5.45 5.45 0 0 0-.54.1Zm10.16-.38 2.6 6.25h3.82l-.07-.15a41.5 41.5 0 0 0-2.76-4.5 9.77 9.77 0 0 0-1.03-1.28 14.9 14.9 0 0 0-2.56-.32Zm6.27 7.71c-.28.38-.66.84-1.11 1.35a57.38 57.38 0 0 1-3.43 3.49 54.15 54.15 0 0 1-3.44 3l4.25-7.84h3.73Zm-5.39 0H1.96c.27.36.62.8 1.05 1.28a57.04 57.04 0 0 0 7.04 6.66 14.37 14.37 0 0 0 1.67 1.13l4.92-9.07Zm2.04-8.8c.17.05.39.13.56.28.35.3.82.9 1.3 1.56a42.95 42.95 0 0 1 2.88 4.7 8.93 8.93 0 0 1 .52 1.31c.02.11.05.31 0 .53-.12.38-.39.82-.7 1.24-.32.44-.75.95-1.23 1.5a58.8 58.8 0 0 1-3.52 3.58 54.1 54.1 0 0 1-3.72 3.22c-.55.43-1.06.79-1.5 1.05a4 4 0 0 1-.61.32c-.19.08-.42.16-.66.16-.24 0-.48-.08-.67-.16a5 5 0 0 1-.65-.33c-.45-.26-.97-.63-1.53-1.07a58.46 58.46 0 0 1-7.24-6.85c-.47-.54-.89-1.04-1.2-1.48-.29-.4-.56-.83-.65-1.2-.06-.22-.01-.43.01-.52l.12-.39c.1-.26.25-.58.42-.93a39.56 39.56 0 0 1 2.9-4.8 12 12 0 0 1 .7-.9c.18-.22.41-.47.64-.6a2 2 0 0 1 .5-.2l.57-.1c.43-.06.98-.11 1.6-.16a74.5 74.5 0 0 1 8.88-.1 15.68 15.68 0 0 1 2.28.33Z"
		clip-rule="evenodd"
	/>
</svg>
